HIERARCHY
ROOT Hips
{
	OFFSET 0.000000 0.000000 0.000000
	CHANNELS 6 Xposition Yposition Zposition Xrotation Yrotation Zrotation
	JOINT Thigh.L
	{
		OFFSET 0.056067 0.027003 -0.096094
		CHANNELS 3 Xrotation Yrotation Zrotation
		JOINT Shin.L
		{
			OFFSET 0.059690 0.006777 -0.409482
			CHANNELS 3 Xrotation Yrotation Zrotation
			JOINT Foot.L
			{
				OFFSET -0.042600 0.032503 -0.434501
				CHANNELS 3 Xrotation Yrotation Zrotation
				JOINT Toe.L
				{
					OFFSET 0.048574 -0.126376 -0.063678
					CHANNELS 3 Xrotation Yrotation Zrotation
					End Site
					{
						OFFSET 0.000000 0.050000 0.000000
					}
				}
			}
		}
	}
	JOINT Thigh.R
	{
		OFFSET -0.061160 0.021291 -0.108744
		CHANNELS 3 Xrotation Yrotation Zrotation
		JOINT Shin.R
		{
			OFFSET -0.048709 0.014885 -0.390860
			CHANNELS 3 Xrotation Yrotation Zrotation
			JOINT Foot.R
			{
				OFFSET 0.014259 0.020559 -0.443424
				CHANNELS 3 Xrotation Yrotation Zrotation
				JOINT Toe.R
				{
					OFFSET -0.039844 -0.127188 -0.063593
					CHANNELS 3 Xrotation Yrotation Zrotation
					End Site
					{
						OFFSET 0.000000 0.050000 0.000000
					}
				}
			}
		}
	}
	JOINT Spine
	{
		OFFSET -0.002678 0.027839 0.115301
		CHANNELS 3 Xrotation Yrotation Zrotation
		JOINT Spine.2
		{
			OFFSET 0.009421 0.006482 0.143815
			CHANNELS 3 Xrotation Yrotation Zrotation
			JOINT Chest
			{
				OFFSET -0.011110 -0.024290 0.057088
				CHANNELS 3 Xrotation Yrotation Zrotation
				JOINT Neck
				{
					OFFSET -0.012452 0.026767 0.172128
					CHANNELS 3 Xrotation Yrotation Zrotation
					JOINT Head
					{
						OFFSET 0.025666 -0.020684 0.170681
						CHANNELS 3 Xrotation Yrotation Zrotation
						End Site
						{
							OFFSET 0.000000 0.050000 0.000000
						}
					}
				}
				JOINT Clavicle.L
				{
					OFFSET 0.047904 0.004731 0.088615
					CHANNELS 3 Xrotation Yrotation Zrotation
					JOINT UpperArm.L
					{
						OFFSET 0.128284 0.014080 0.058900
						CHANNELS 3 Xrotation Yrotation Zrotation
						JOINT ForeArm.L
						{
							OFFSET 0.268380 0.043635 -0.075342
							CHANNELS 3 Xrotation Yrotation Zrotation
							JOINT Hand.L
							{
								OFFSET 0.271502 0.000567 0.022754
								CHANNELS 3 Xrotation Yrotation Zrotation
								JOINT Thumb1.L
								{
									OFFSET 0.154581 0.000250 0.010022
									CHANNELS 3 Xrotation Yrotation Zrotation
									JOINT Thumb2.L
									{
										OFFSET 0.029895 0.000062 0.002505
										CHANNELS 3 Xrotation Yrotation Zrotation
										End Site
										{
											OFFSET 0.024913 0.000052 0.002088
										}
									}
								}
								JOINT Index1.L
								{
									OFFSET 0.137581 0.000250 0.010022
									CHANNELS 3 Xrotation Yrotation Zrotation
									JOINT Index2.L
									{
										OFFSET 0.029895 0.000062 0.002505
										CHANNELS 3 Xrotation Yrotation Zrotation
										JOINT Index3.L
										{
											OFFSET 0.021923 0.000046 0.001837
											CHANNELS 3 Xrotation Yrotation Zrotation
											End Site
											{
												OFFSET 0.017937 0.000037 0.001503
											}
										}
									}
								}
								JOINT Middle1.L
								{
									OFFSET 0.119581 0.000250 0.010022
									CHANNELS 3 Xrotation Yrotation Zrotation
									JOINT Middle2.L
									{
										OFFSET 0.030892 0.000064 0.002589
										CHANNELS 3 Xrotation Yrotation Zrotation
										JOINT Middle3.L
										{
											OFFSET 0.021923 0.000046 0.001837
											CHANNELS 3 Xrotation Yrotation Zrotation
											End Site
											{
												OFFSET 0.017937 0.000037 0.001503
											}
										}
									}
								}
								JOINT Ring1.L
								{
									OFFSET 0.101581 0.000250 0.010022
									CHANNELS 3 Xrotation Yrotation Zrotation
									JOINT Ring2.L
									{
										OFFSET 0.028899 0.000060 0.002422
										CHANNELS 3 Xrotation Yrotation Zrotation
										JOINT Ring3.L
										{
											OFFSET 0.019930 0.000042 0.001670
											CHANNELS 3 Xrotation Yrotation Zrotation
											End Site
											{
												OFFSET 0.016941 0.000035 0.001420
											}
										}
									}
								}
								JOINT Pinky1.L
								{
									OFFSET 0.085581 0.000250 0.010022
									CHANNELS 3 Xrotation Yrotation Zrotation
									JOINT Pinky2.L
									{
										OFFSET 0.023916 0.000050 0.002004
										CHANNELS 3 Xrotation Yrotation Zrotation
										JOINT Pinky3.L
										{
											OFFSET 0.016941 0.000035 0.001420
											CHANNELS 3 Xrotation Yrotation Zrotation
											End Site
											{
												OFFSET 0.013951 0.000029 0.001169
											}
										}
									}
								}
							}
						}
					}
				}
				JOINT Clavicle.R
				{
					OFFSET -0.049118 0.010911 0.087743
					CHANNELS 3 Xrotation Yrotation Zrotation
					JOINT UpperArm.R
					{
						OFFSET -0.111174 0.010753 0.054959
						CHANNELS 3 Xrotation Yrotation Zrotation
						JOINT ForeArm.R
						{
							OFFSET -0.286799 0.027916 -0.039087
							CHANNELS 3 Xrotation Yrotation Zrotation
							JOINT Hand.R
							{
								OFFSET -0.267883 0.014076 -0.005437
								CHANNELS 3 Xrotation Yrotation Zrotation
								JOINT Thumb1.R
								{
									OFFSET -0.154810 0.006295 -0.002432
									CHANNELS 3 Xrotation Yrotation Zrotation
									JOINT Thumb2.R
									{
										OFFSET -0.029953 0.001574 -0.000608
										CHANNELS 3 Xrotation Yrotation Zrotation
										End Site
										{
											OFFSET -0.024960 0.001312 -0.000507
										}
									}
								}
								JOINT Index1.R
								{
									OFFSET -0.137810 0.006295 -0.002432
									CHANNELS 3 Xrotation Yrotation Zrotation
									JOINT Index2.R
									{
										OFFSET -0.029953 0.001574 -0.000608
										CHANNELS 3 Xrotation Yrotation Zrotation
										JOINT Index3.R
										{
											OFFSET -0.021965 0.001154 -0.000446
											CHANNELS 3 Xrotation Yrotation Zrotation
											End Site
											{
												OFFSET -0.017972 0.000944 -0.000365
											}
										}
									}
								}
								JOINT Middle1.R
								{
									OFFSET -0.119810 0.006295 -0.002432
									CHANNELS 3 Xrotation Yrotation Zrotation
									JOINT Middle2.R
									{
										OFFSET -0.030951 0.001626 -0.000628
										CHANNELS 3 Xrotation Yrotation Zrotation
										JOINT Middle3.R
										{
											OFFSET -0.021965 0.001154 -0.000446
											CHANNELS 3 Xrotation Yrotation Zrotation
											End Site
											{
												OFFSET -0.017972 0.000944 -0.000365
											}
										}
									}
								}
								JOINT Ring1.R
								{
									OFFSET -0.101810 0.006295 -0.002432
									CHANNELS 3 Xrotation Yrotation Zrotation
									JOINT Ring2.R
									{
										OFFSET -0.028954 0.001521 -0.000588
										CHANNELS 3 Xrotation Yrotation Zrotation
										JOINT Ring3.R
										{
											OFFSET -0.019968 0.001049 -0.000405
											CHANNELS 3 Xrotation Yrotation Zrotation
											End Site
											{
												OFFSET -0.016973 0.000892 -0.000344
											}
										}
									}
								}
								JOINT Pinky1.R
								{
									OFFSET -0.085810 0.006295 -0.002432
									CHANNELS 3 Xrotation Yrotation Zrotation
									JOINT Pinky2.R
									{
										OFFSET -0.023962 0.001259 -0.000486
										CHANNELS 3 Xrotation Yrotation Zrotation
										JOINT Pinky3.R
										{
											OFFSET -0.016973 0.000892 -0.000344
											CHANNELS 3 Xrotation Yrotation Zrotation
											End Site
											{
												OFFSET -0.013978 0.000734 -0.000284
											}
										}
									}
								}
							}
						}
					}
				}
			}
		}
	}
}
MOTION
Frames: 7
Frame Time: 0.04166667
0.001959 -0.039005 1.018917 -4.194491 0.137060 0.384353 5.426319 -2.915346 2.401672 2.379430 2.260253 -10.453155 -8.959910 -1.995193 8.837410 -0.757871 -1.940925 -1.236074 1.004384 3.713392 -2.656555 8.144830 0.365605 6.352596 -9.281594 -2.663958 -5.262451 -0.381993 -1.660223 0.527584 2.975903 1.236683 2.591099 -0.327661 -0.303459 -1.454663 2.826728 0.662059 0.054259 5.717695 0.556782 1.866611 4.768387 -1.182417 -0.707033 -1.234199 20.379644 -1.279765 26.189914 43.928963 -26.278258 20.007336 -0.312769 -23.361531 0.630446 0.691550 -9.096507 0.000000 0.000000 0.000000 0.000000 0.000000 0.000000 0.000000 0.000000 0.000000 0.000000 0.000000 0.000000 0.000000 0.000000 0.000000 0.000000 0.000000 0.000000 0.000000 0.000000 0.000000 0.000000 0.000000 0.000000 0.000000 0.000000 0.000000 0.000000 0.000000 0.000000 0.000000 0.000000 0.000000 0.000000 0.000000 0.000000 0.000000 0.000000 0.000000 0.000000 0.000000 0.000000 0.087664 -20.294363 6.482350 29.842186 -45.578010 29.585445 12.851675 -0.116784 24.703136 -0.805585 -2.711239 5.549940 0.000000 0.000000 0.000000 0.000000 0.000000 0.000000 0.000000 0.000000 0.000000 0.000000 0.000000 0.000000 0.000000 0.000000 0.000000 0.000000 0.000000 0.000000 0.000000 0.000000 0.000000 0.000000 0.000000 0.000000 0.000000 0.000000 0.000000 0.000000 0.000000 0.000000 0.000000 0.000000 0.000000 0.000000 0.000000 0.000000 0.000000 0.000000 0.000000 0.000000 0.000000 0.000000
0.000712 -0.038757 1.018911 -4.174688 0.198331 0.407129 5.459154 -2.895126 2.401811 2.291013 2.207622 -10.461808 -8.995482 -2.041188 8.848667 -0.755897 -1.960498 -1.243332 0.963640 3.700238 -2.619226 8.197708 0.371358 6.415150 -9.221732 -2.682401 -5.302719 -0.359903 -1.662745 0.540176 2.961878 1.209862 2.564534 -0.300056 -0.309184 -1.454261 2.781670 0.672074 0.049368 5.727207 0.565110 1.878220 4.740808 -1.147935 -0.689406 -1.210587 20.400203 -1.298227 26.216215 43.971479 -26.335759 20.160029 -0.337394 -23.300326 0.803267 0.817159 -9.091717 0.000000 0.000000 0.000000 0.000000 0.000000 0.000000 0.000000 0.000000 0.000000 0.000000 0.000000 0.000000 0.000000 0.000000 0.000000 0.000000 0.000000 0.000000 0.000000 0.000000 0.000000 0.000000 0.000000 0.000000 0.000000 0.000000 0.000000 0.000000 0.000000 0.000000 0.000000 0.000000 0.000000 0.000000 0.000000 0.000000 0.000000 0.000000 0.000000 0.000000 0.000000 0.000000 0.110726 -20.310405 6.477434 29.807662 -45.539580 29.545163 12.874084 -0.064374 24.613996 -0.766632 -2.780307 5.543878 0.000000 0.000000 0.000000 0.000000 0.000000 0.000000 0.000000 0.000000 0.000000 0.000000 0.000000 0.000000 0.000000 0.000000 0.000000 0.000000 0.000000 0.000000 0.000000 0.000000 0.000000 0.000000 0.000000 0.000000 0.000000 0.000000 0.000000 0.000000 0.000000 0.000000 0.000000 0.000000 0.000000 0.000000 0.000000 0.000000 0.000000 0.000000 0.000000 0.000000 0.000000 0.000000
0.000390 -0.038789 1.018912 -4.163167 0.216420 0.392436 5.469560 -2.884479 2.396364 2.237198 2.186514 -10.403690 -8.986132 -2.049835 8.839767 -0.743826 -1.961472 -1.236238 0.977558 3.690959 -2.633055 8.127709 0.385188 6.477559 -9.167821 -2.664613 -5.288707 -0.352774 -1.677272 0.542436 2.963510 1.201677 2.561667 -0.243411 -0.316932 -1.459826 2.738584 0.694383 0.033134 5.718571 0.568750 1.852620 4.704415 -1.145329 -0.697547 -1.187410 20.401433 -1.302606 26.243768 43.968972 -26.374557 20.108833 -0.363391 -23.302934 0.761056 0.811774 -9.107810 0.000000 0.000000 0.000000 0.000000 0.000000 0.000000 0.000000 0.000000 0.000000 0.000000 0.000000 0.000000 0.000000 0.000000 0.000000 0.000000 0.000000 0.000000 0.000000 0.000000 0.000000 0.000000 0.000000 0.000000 0.000000 0.000000 0.000000 0.000000 0.000000 0.000000 0.000000 0.000000 0.000000 0.000000 0.000000 0.000000 0.000000 0.000000 0.000000 0.000000 0.000000 0.000000 0.112069 -20.284270 6.516870 29.865779 -45.560039 29.607369 12.804726 -0.034464 24.586854 -0.811283 -2.701930 5.553315 0.000000 0.000000 0.000000 0.000000 0.000000 0.000000 0.000000 0.000000 0.000000 0.000000 0.000000 0.000000 0.000000 0.000000 0.000000 0.000000 0.000000 0.000000 0.000000 0.000000 0.000000 0.000000 0.000000 0.000000 0.000000 0.000000 0.000000 0.000000 0.000000 0.000000 0.000000 0.000000 0.000000 0.000000 0.000000 0.000000 0.000000 0.000000 0.000000 0.000000 0.000000 0.000000
0.000171 -0.038738 1.018912 -4.147737 0.220374 0.441890 5.437229 -2.876254 2.382625 2.248907 2.181136 -10.379878 -8.988433 -2.069684 8.815251 -0.749085 -1.963278 -1.235521 0.981619 3.701134 -2.618962 8.103044 0.372183 6.511381 -9.137728 -2.627492 -5.323668 -0.372176 -1.675753 0.543946 2.966484 1.207245 2.565961 -0.205162 -0.336621 -1.472302 2.713868 0.707070 0.032828 5.692248 0.565352 1.840703 4.646472 -1.144371 -0.754316 -1.196751 20.423683 -1.315272 26.276977 43.952497 -26.393831 20.075581 -0.387852 -23.354619 0.806880 0.802796 -9.110099 0.000000 0.000000 0.000000 0.000000 0.000000 0.000000 0.000000 0.000000 0.000000 0.000000 0.000000 0.000000 0.000000 0.000000 0.000000 0.000000 0.000000 0.000000 0.000000 0.000000 0.000000 0.000000 0.000000 0.000000 0.000000 0.000000 0.000000 0.000000 0.000000 0.000000 0.000000 0.000000 0.000000 0.000000 0.000000 0.000000 0.000000 0.000000 0.000000 0.000000 0.000000 0.000000 0.126876 -20.326017 6.542916 29.822307 -45.525465 29.549943 12.789361 -0.009598 24.559292 -0.734088 -2.713766 5.559875 0.000000 0.000000 0.000000 0.000000 0.000000 0.000000 0.000000 0.000000 0.000000 0.000000 0.000000 0.000000 0.000000 0.000000 0.000000 0.000000 0.000000 0.000000 0.000000 0.000000 0.000000 0.000000 0.000000 0.000000 0.000000 0.000000 0.000000 0.000000 0.000000 0.000000 0.000000 0.000000 0.000000 0.000000 0.000000 0.000000 0.000000 0.000000 0.000000 0.000000 0.000000 0.000000
-0.000015 -0.038573 1.018904 -4.117742 0.227774 0.474585 5.399986 -2.872368 2.371781 2.248965 2.173752 -10.327467 -8.991577 -2.079576 8.777755 -0.752628 -1.969289 -1.239235 0.974846 3.704984 -2.603178 8.062536 0.363097 6.548099 -9.106441 -2.621767 -5.355141 -0.376052 -1.677023 0.550037 2.964229 1.209774 2.566095 -0.193820 -0.348053 -1.477494 2.717577 0.700238 0.024403 5.639485 0.552660 1.850605 4.599923 -1.150394 -0.797644 -1.206093 20.446266 -1.325175 26.276368 43.946209 -26.393835 20.074932 -0.395014 -23.384296 0.834498 0.826696 -9.102583 0.000000 0.000000 0.000000 0.000000 0.000000 0.000000 0.000000 0.000000 0.000000 0.000000 0.000000 0.000000 0.000000 0.000000 0.000000 0.000000 0.000000 0.000000 0.000000 0.000000 0.000000 0.000000 0.000000 0.000000 0.000000 0.000000 0.000000 0.000000 0.000000 0.000000 0.000000 0.000000 0.000000 0.000000 0.000000 0.000000 0.000000 0.000000 0.000000 0.000000 0.000000 0.000000 0.125160 -20.341341 6.554553 29.820756 -45.504671 29.537829 12.782928 0.035018 24.536303 -0.692051 -2.750492 5.552637 0.000000 0.000000 0.000000 0.000000 0.000000 0.000000 0.000000 0.000000 0.000000 0.000000 0.000000 0.000000 0.000000 0.000000 0.000000 0.000000 0.000000 0.000000 0.000000 0.000000 0.000000 0.000000 0.000000 0.000000 0.000000 0.000000 0.000000 0.000000 0.000000 0.000000 0.000000 0.000000 0.000000 0.000000 0.000000 0.000000 0.000000 0.000000 0.000000 0.000000 0.000000 0.000000
-0.000145 -0.038928 1.018921 -4.125175 0.222638 0.492410 5.370711 -2.852088 2.373246 2.279116 2.167317 -10.296148 -8.996983 -2.096118 8.759013 -0.755307 -1.968344 -1.237008 0.920228 3.721801 -2.598743 8.145033 0.361386 6.539096 -9.111406 -2.643866 -5.376815 -0.378594 -1.670072 0.550977 2.984652 1.226967 2.557944 -0.197895 -0.359360 -1.472793 2.719306 0.705587 0.006215 5.569174 0.525720 1.845952 4.591374 -1.109685 -0.860185 -1.204141 20.452333 -1.322368 26.262989 43.952290 -26.424353 20.066875 -0.409658 -23.380595 0.880438 0.838758 -9.079427 0.000000 0.000000 0.000000 0.000000 0.000000 0.000000 0.000000 0.000000 0.000000 0.000000 0.000000 0.000000 0.000000 0.000000 0.000000 0.000000 0.000000 0.000000 0.000000 0.000000 0.000000 0.000000 0.000000 0.000000 0.000000 0.000000 0.000000 0.000000 0.000000 0.000000 0.000000 0.000000 0.000000 0.000000 0.000000 0.000000 0.000000 0.000000 0.000000 0.000000 0.000000 0.000000 0.098125 -20.361803 6.546904 29.820749 -45.500675 29.537316 12.745231 0.085602 24.518934 -0.689093 -2.737249 5.535267 0.000000 0.000000 0.000000 0.000000 0.000000 0.000000 0.000000 0.000000 0.000000 0.000000 0.000000 0.000000 0.000000 0.000000 0.000000 0.000000 0.000000 0.000000 0.000000 0.000000 0.000000 0.000000 0.000000 0.000000 0.000000 0.000000 0.000000 0.000000 0.000000 0.000000 0.000000 0.000000 0.000000 0.000000 0.000000 0.000000 0.000000 0.000000 0.000000 0.000000 0.000000 0.000000
-0.000303 -0.038918 1.018926 -4.113650 0.218938 0.495977 5.346670 -2.832326 2.359056 2.296229 2.164893 -10.259419 -8.999549 -2.120917 8.745472 -0.752521 -1.964753 -1.238695 0.874564 3.740164 -2.599288 8.197788 0.362698 6.536308 -9.113284 -2.673268 -5.374697 -0.378715 -1.671342 0.552904 3.005899 1.249991 2.557713 -0.204282 -0.368871 -1.469496 2.717602 0.707660 -0.005484 5.539872 0.495886 1.856396 4.579853 -1.100709 -0.904489 -1.193061 20.454984 -1.336507 26.260121 43.960175 -26.449768 20.111361 -0.428835 -23.355439 0.933442 0.814141 -9.079671 0.000000 0.000000 0.000000 0.000000 0.000000 0.000000 0.000000 0.000000 0.000000 0.000000 0.000000 0.000000 0.000000 0.000000 0.000000 0.000000 0.000000 0.000000 0.000000 0.000000 0.000000 0.000000 0.000000 0.000000 0.000000 0.000000 0.000000 0.000000 0.000000 0.000000 0.000000 0.000000 0.000000 0.000000 0.000000 0.000000 0.000000 0.000000 0.000000 0.000000 0.000000 0.000000 0.079247 -20.369954 6.550739 29.843997 -45.508695 29.544968 12.745855 0.147508 24.487194 -0.658231 -2.747036 5.526839 0.000000 0.000000 0.000000 0.000000 0.000000 0.000000 0.000000 0.000000 0.000000 0.000000 0.000000 0.000000 0.000000 0.000000 0.000000 0.000000 0.000000 0.000000 0.000000 0.000000 0.000000 0.000000 0.000000 0.000000 0.000000 0.000000 0.000000 0.000000 0.000000 0.000000 0.000000 0.000000 0.000000 0.000000 0.000000 0.000000 0.000000 0.000000 0.000000 0.000000 0.000000 0.000000
